<svg xmlns="http://www.w3.org/2000/svg" viewBox="0 0 93.23 93.23"><defs><style>.cls-1{fill:#48a0dc;}.cls-2{fill:#fff;}</style></defs><title>css3</title><g id="Layer_2" data-name="Layer 2"><g id="Software_Developer_Portfolio" data-name="Software Developer Portfolio"><g id="Skills_2" data-name="Skills 2"><g id="Skills_Icons" data-name="Skills Icons"><g id="Skills_Icons_1" data-name="Skills Icons 1"><g id="Css_3_Logo" data-name="Css 3 Logo"><g id="Shape"><circle class="cls-1" cx="46.62" cy="46.62" r="46.62"/></g><polygon class="cls-2" points="70.7 32.64 71.68 23.02 47.13 23.02 22.14 23.02 23.34 32.64 47.13 32.64 48.46 32.64 47.13 33.2 24.21 42.7 24.97 52.11 47.13 52.17 59 52.21 58.24 64.75 47.13 67.87 47.13 67.86 47.04 67.89 36.3 65.19 35.65 57.4 35.61 57.4 25.66 57.4 25.62 57.4 26.92 72.43 47.13 78.38 47.13 78.37 47.16 78.38 67.26 72.54 69.87 42.7 47.13 42.7 47.07 42.7 47.13 42.67 70.7 32.64"/></g></g></g></g></g></g></svg>