<svg xmlns="http://www.w3.org/2000/svg" viewBox="0 0 99.44 99.44"><defs><style>.cls-1{fill:#de4c36;}</style></defs><title>git</title><g id="Layer_2" data-name="Layer 2"><g id="Software_Developer_Portfolio" data-name="Software Developer Portfolio"><g id="Skills_2" data-name="Skills 2"><g id="Skills_Icons" data-name="Skills Icons"><g id="Skills_Icons_2" data-name="Skills Icons 2"><path id="Git" class="cls-1" d="M97.57,45.29,54.15,1.88a6.4,6.4,0,0,0-9.06,0h0l-9,9L47.51,22.33A7.61,7.61,0,0,1,57.15,32l11,11A7.62,7.62,0,0,1,76,55.63h0A7.62,7.62,0,0,1,63.6,47.34L53.32,37.07V64.12a7.7,7.7,0,0,1,2,1.44,7.62,7.62,0,0,1,0,10.78h0a7.62,7.62,0,1,1-8.28-12.44V36.59a7.53,7.53,0,0,1-2.49-1.66,7.62,7.62,0,0,1-1.64-8.33L31.65,15.32,1.88,45.09a6.41,6.41,0,0,0,0,9.06h0L45.3,97.57a6.41,6.41,0,0,0,9.06,0L97.57,54.35a6.41,6.41,0,0,0,0-9.06"/></g></g></g></g></g></svg>