<svg xmlns="http://www.w3.org/2000/svg" viewBox="0 0 95.93 95.93"><defs><style>.cls-1{fill:#8957e5;}</style></defs><title>github2</title><g id="Layer_2" data-name="Layer 2"><g id="Software_Developer_Portfolio" data-name="Software Developer Portfolio"><g id="Skills_2" data-name="Skills 2"><g id="Skills_Icons" data-name="Skills Icons"><g id="Skills_Icons_2" data-name="Skills Icons 2"><g id="Github"><g id="Dribbble-Light-Preview"><g id="icons"><path id="github-_142_" data-name="github-[#142]" class="cls-1" d="M48,0c26.49,0,48,22,48,49.18A49.09,49.09,0,0,1,63.16,95.84c-2.43.48-3.3-1-3.3-2.36,0-1.62.06-6.92.06-13.5,0-4.58-1.53-7.58-3.26-9.1,10.68-1.22,21.91-5.38,21.91-24.27a19.25,19.25,0,0,0-4.94-13.2c.5-1.24,2.14-6.24-.47-13,0,0-4-1.32-13.18,5a44.39,44.39,0,0,0-24,0c-9.17-6.36-13.2-5-13.2-5-2.6,6.77-1,11.78-.47,13a19.32,19.32,0,0,0-4.94,13.2c0,18.84,11.2,23.06,21.85,24.31a10.57,10.57,0,0,0-3,6.57c-2.73,1.26-9.68,3.43-14-4.08,0,0-2.54-4.73-7.35-5.07,0,0-4.68-.06-.33,3,0,0,3.14,1.51,5.32,7.19,0,0,2.82,8.78,16.16,5.8,0,4.11.07,8,.07,9.16s-.88,2.82-3.28,2.37A49.09,49.09,0,0,1,0,49.18C0,22,21.48,0,48,0"/></g></g></g></g></g></g></g></g></svg>