<svg xmlns="http://www.w3.org/2000/svg" viewBox="0 0 93.9 93.89"><defs><style>.cls-1{fill:#fff;}.cls-2{fill:#e15522;}</style></defs><title>Html5_1</title><g id="Layer_2" data-name="Layer 2"><g id="Software_Developer_Portfolio" data-name="Software Developer Portfolio"><g id="Skills_2" data-name="Skills 2"><g id="Skills_Icons" data-name="Skills Icons"><g id="Skills_Icons_1" data-name="Skills Icons 1"><g id="HTML5"><rect class="cls-1" x="27.91" y="11.79" width="40.8" height="13.86"/><polyline class="cls-1" points="25.01 27.22 29.24 74.64 48.22 79.91 67.22 74.64 71.44 27.22"/><polygon class="cls-2" points="48.23 54.5 55.39 54.5 54.72 62.04 48.23 63.8 48.22 63.8 41.74 62.04 41.31 57.2 35.47 57.2 36.31 66.54 48.22 69.85 48.23 69.84 60.15 66.54 61.74 48.68 48.23 48.68 40.55 48.68 40.02 42.73 48.23 42.73 62.27 42.73 62.8 36.91 48.23 36.91 33.66 36.91 35.23 54.5 48.23 54.5"/><path class="cls-2" d="M46.95,0A46.95,46.95,0,1,0,93.9,46.95,47,47,0,0,0,46.95,0ZM60.06,14.5h3v5.92h4.16v2.92H60.06V14.5Zm-11.43,0h3.08l1.9,3.11,1.9-3.11h3.08v8.84H55.64V19l-2,3.14h0l-2-3.14v4.38H48.63Zm-9.46,0h8.16v2.93H44.73v5.91h-3V17.43h-2.6Zm-9.9,0h3v2.92h2.7V14.5h3v8.84h-3v-3h-2.7v3h-3ZM67.22,74.64l-19,5.27-19-5.27L25,27.22H71.44Z"/></g></g></g></g></g></g></svg>