<svg xmlns="http://www.w3.org/2000/svg" viewBox="0 0 96.69 96.73"><defs><style>.cls-1{fill:#f7f7f7;}.cls-2{fill:#f47e22;}</style></defs><title>illustrator</title><g id="Layer_2" data-name="Layer 2"><g id="Software_Developer_Portfolio" data-name="Software Developer Portfolio"><g id="Skills_2" data-name="Skills 2"><g id="Skills_Icons" data-name="Skills Icons"><g id="Skills_Icons_2" data-name="Skills Icons 2"><g id="AI"><ellipse class="cls-1" cx="50.32" cy="49.12" rx="26.31" ry="26.52"/><path class="cls-2" d="M44.7,45.62,45.86,53H40.8l1.31-7.36c.36-2.07.88-5.73,1.27-8.12h.16C43.83,39.92,44.3,43.47,44.7,45.62Zm52,2.75h0A48.36,48.36,0,0,1,48.32,96.73h0A48.41,48.41,0,0,1,0,48.36H0A48.36,48.36,0,0,1,48.36,0h0A48.36,48.36,0,0,1,96.69,48.36Zm-42,18.15L47.81,31H39.53L31.84,66.51h6.69l1.59-8.12h6.37L48,66.51ZM64.84,40.76H58V66.51h6.89Zm0-6.85a3.46,3.46,0,0,0-3.54-3.74,3.5,3.5,0,0,0-3.54,3.74,3.46,3.46,0,0,0,3.42,3.74A3.51,3.51,0,0,0,64.84,33.91Z"/></g></g></g></g></g></g></svg>