<svg xmlns="http://www.w3.org/2000/svg" viewBox="0 0 92.75 92.75"><defs><style>.cls-1{fill:#f0db4f;}.cls-2{fill:#323330;}</style></defs><title>js</title><g id="Layer_2" data-name="Layer 2"><g id="Software_Developer_Portfolio" data-name="Software Developer Portfolio"><g id="Skills_2" data-name="Skills 2"><g id="Skills_Icons" data-name="Skills Icons"><g id="Skills_Icons_1" data-name="Skills Icons 1"><g id="JS"><circle class="cls-1" cx="46.38" cy="46.38" r="46.38"/><g id="Layer_1-2" data-name="Layer 1"><path class="cls-2" d="M31.91,28.38H40V51.11c0,10.2-4.92,13.82-12.71,13.82a20,20,0,0,1-5.94-.83l.93-6.59a13.6,13.6,0,0,0,4.17.65c3.43,0,5.57-1.58,5.57-7l-.09-22.72Z"/><path class="cls-2" d="M47.12,56a20.7,20.7,0,0,0,9,2.23c3.71,0,5.66-1.58,5.66-4,0-2.23-1.67-3.52-6-5-5.94-2.13-9.92-5.47-9.92-10.76,0-6,5.19-10.67,13.63-10.67a21,21,0,0,1,9.18,1.86l-1.86,6.49a17.46,17.46,0,0,0-7.42-1.67c-3.52,0-5.19,1.67-5.19,3.43,0,2.32,1.95,3.34,6.68,5.1,6.31,2.32,9.28,5.66,9.28,10.76,0,6-4.54,11.13-14.47,11.13a23.79,23.79,0,0,1-10.2-2.23Z"/></g></g></g></g></g></g></g></svg>