<?xml version="1.0" encoding="utf-8"?>
<!-- Generator: Adobe Illustrator 20.1.0, SVG Export Plug-In . SVG Version: 6.00 Build 0)  -->
<svg version="1.1" id="Layer_1" xmlns="http://www.w3.org/2000/svg" xmlns:xlink="http://www.w3.org/1999/xlink" x="0px" y="0px"
	 viewBox="0 0 32 32" style="enable-background:new 0 0 32 32;" xml:space="preserve">
<style type="text/css">
	.st0{fill:#F4F341;}
	.st1{fill:#222222;}
</style>
<g id="Desktop25">
</g>
<g id="Desktop24">
</g>
<g id="Desktop23">
</g>
<g id="Desktop22">
</g>
<g id="Desktop21">
</g>
<g id="Desktop20">
</g>
<g id="Desktop19">
</g>
<g id="Desktop18">
</g>
<g id="Desktop17">
</g>
<g id="Desktop16">
</g>
<g id="Desktop15">
</g>
<g id="Desktop14">
</g>
<g id="Desktop13">
</g>
<g id="Desktop12">
</g>
<g id="Desktop11">
</g>
<g id="Desktop10">
</g>
<g id="Desktop09">
</g>
<g id="Desktop08">
	<g>
		<path class="st0" d="M5,20l0-8C5,6,9.9,1,15.9,1S27,5.9,27,12l0,8c0,5.7-4.4,10.5-10,11c-0.3,0-0.7,0.1-1,0.1c-0.3,0-0.7,0-1,0
			C9.5,30.5,5,25.8,5,20z"/>
	</g>
	<g>
		<path class="st1" d="M13,20l0-2c0-1.6,1.3-3,3-3s3,1.3,3,3l0,2c0,1.3-0.8,2.4-2,2.8l0,8.1c-0.3,0-0.7,0.1-1,0.1c-0.3,0-0.7,0-1,0
			l0-8.1C13.9,22.4,13,21.3,13,20z"/>
	</g>
</g>
<g id="Desktop07">
</g>
<g id="Desktop06">
</g>
<g id="Desktop05">
</g>
<g id="Desktop04">
</g>
<g id="Desktop03">
</g>
<g id="Desktop02">
</g>
<g id="Desktop01">
</g>
</svg>
