<?xml version="1.0" ?><svg id="Layer_1" style="enable-background:new 0 0 242.9 242.9;" version="1.1" viewBox="0 0 242.9 242.9" xml:space="preserve" xmlns="http://www.w3.org/2000/svg" xmlns:xlink="http://www.w3.org/1999/xlink"><style type="text/css">
	.st0{fill:#00B4DB;}
</style><path class="st0" d="M121.5,0L121.5,0C54.4,0,0,54.4,0,121.5v0c0,67.1,54.4,121.5,121.5,121.5h0c67.1,0,121.5-54.4,121.5-121.5v0  C242.9,54.4,188.5,0,121.5,0z M125.1,124.2c-5.6,5.8-14.5,8.5-21.7,8.5c-1.2,0-2.4,0-3.4,0v33.2H82.7V78c4.9-1.1,11.5-1.7,18.1-1.7  c10.3,0,18.4,1.5,24.2,6.9c5.3,4.6,7.7,12,7.7,19.6C132.7,112.4,129.8,119.1,125.1,124.2z M150.6,166.6c-5.4,0-11.8-1.5-14.8-3.7  l3.2-12.7c2.5,1.6,7.3,3.4,11.6,3.4c4.5,0,7-2,7-5.8c0-3.3-1.9-5.4-7.5-8.7c-10.6-5.9-13.1-12.7-13.1-18.6  c0-11.6,8.3-20.4,21.3-20.4c5.4,0,9.7,1.3,13.1,2.9l-3,12.7c-2.5-1.5-5.6-2.6-9-2.6c-4.4,0-6.5,2.6-6.5,5.6c0,2.9,1.5,4.5,7.5,8.1  c9.5,5.4,13.1,12.2,13.1,19.6C173.5,159.5,164,166.6,150.6,166.6z M115.5,104.2c0,8.3-4,14.5-12.7,14.5c-1.1,0-2,0-2.8-0.3V91  c1.1-0.4,2.6-0.7,4.2-0.7C112.3,90.3,115.5,96.4,115.5,104.2z"/></svg>