<svg xmlns="http://www.w3.org/2000/svg" viewBox="0 0 139.43 83.83"><defs><style>.cls-1{fill:#8bd4fa;}</style></defs><title>Tailwind</title><g id="Layer_2" data-name="Layer 2"><g id="Software_Developer_Portfolio" data-name="Software Developer Portfolio"><g id="Skills_2" data-name="Skills 2"><g id="Skills_Icons" data-name="Skills Icons"><g id="Skills_Icons_1" data-name="Skills Icons 1"><path id="Taiwilnd" class="cls-1" d="M115,24.55a29.42,29.42,0,0,1-13.32-9.34A40.23,40.23,0,0,0,69.72.08,32.91,32.91,0,0,0,34.86,28a22.52,22.52,0,0,1,24.4-10.39A30.12,30.12,0,0,1,72.58,27a40.23,40.23,0,0,0,32,14.92A32.91,32.91,0,0,0,139.43,14,22.31,22.31,0,0,1,115,24.55ZM24.4,59.27a29.42,29.42,0,0,1,13.32,9.34,40.23,40.23,0,0,0,32,15.13,32.91,32.91,0,0,0,34.86-27.89,22.52,22.52,0,0,1-24.4,10.39,30.12,30.12,0,0,1-13.32-9.41,40.44,40.44,0,0,0-32-14.92A32.91,32.91,0,0,0,0,69.8,22.31,22.31,0,0,1,24.4,59.27Z"/></g></g></g></g></g></svg>